inDegrees=yes
name=ik_S53_A07_T02
DataType=double
version=3
OpenSimVersion=4.3-2021-08-27-4bc7ad9
endheader
time	pelvis_tilt	pelvis_list	pelvis_rotation	pelvis_tx	pelvis_ty	pelvis_tz	hip_flexion_r	hip_adduction_r	hip_rotation_r	knee_angle_r	knee_angle_r_beta	ankle_angle_r	subtalar_angle_r	mtp_angle_r	hip_flexion_l	hip_adduction_l	hip_rotation_l	knee_angle_l	knee_angle_l_beta	ankle_angle_l	subtalar_angle_l	mtp_angle_l	lumbar_extension	lumbar_bending	lumbar_rotation	arm_flex_r	arm_add_r	arm_rot_r	elbow_flex_r	pro_sup_r	wrist_flex_r	wrist_dev_r	arm_flex_l	arm_add_l	arm_rot_l	elbow_flex_l	pro_sup_l	wrist_flex_l	wrist_dev_l
6.699999999999982	-5.106254048382116	-4.796389381256084	35.36489118892662	0	0.9399999999999999	0	31.50001185076533	-10.82436920389094	-9.075760680099869	44.29535592432441	0.7730998042222371	0	0	0	31.50001185076533	-10.82436920389094	-9.075760680099869	44.29535592432441	0.7730998042222371	0	0	0	-4.227046094548172	-1.682619224519966	5.283182390886366	66.49065462360153	1.037163404222145	0.5319923998437301	33.65580446603726	116.2984180075601	0	0	36.50839002323807	-10.78920266282699	8.348173142365384	34.36870465659004	111.2854605971754	0	0
6.716666666666648	-5.111819549468193	-4.794037405989252	35.3563813421917	0	0.9399999999999999	0	31.52226967501945	-10.82056727906561	-9.078769059371464	44.3075019505201	0.7733117923703854	0	0	0	31.52226967501945	-10.82056727906561	-9.078769059371464	44.3075019505201	0.7733117923703854	0	0	0	-4.233190542853768	-1.677072393639285	5.280687360596384	66.49270259612432	1.04120703696476	0.5441914703966153	33.67456310977487	116.2829590523895	0	0	36.48788417334944	-10.73501714955246	8.337196513419412	34.41048736443528	111.2248454976582	0	0
6.733333333333315	-5.097273047938093	-4.816900052269222	35.40026637221707	0	0.9399999999999999	0	31.52538758572178	-10.8199266017573	-9.079230760528652	44.3091533394102	0.7733406145437486	0	0	0	31.52538758572178	-10.8199266017573	-9.079230760528652	44.3091533394102	0.7733406145437486	0	0	0	-4.237007547629352	-1.700360837656917	5.24826655898813	66.57897237209826	1.182705494461858	0.8215470610076454	33.54855202993858	115.9809032927449	0	0	36.50548058679779	-10.7508381702354	8.376186749395396	34.395594992496	111.1618625582308	0	0
6.749999999999981	-5.089754245053649	-4.833610053821992	35.43241349722172	0	0.9399999999999999	0	31.52824960430302	-10.81933854611437	-9.07965458239366	44.31066871843466	0.773367062897141	0	0	0	31.52824960430302	-10.81933854611437	-9.07965458239366	44.31066871843466	0.773367062897141	0	0	0	-4.242848992865723	-1.714801698675056	5.21860331422435	66.63533609262205	1.334543649040611	1.055683818593087	33.5587115821682	115.8757307316689	0	0	36.54504585195294	-10.75179269586353	8.39734229201699	34.37360806947725	111.1426844425942	0	0
6.766666666666648	-5.072722342407928	-4.861769329271461	35.49808095887789	0	0.9399999999999999	0	31.53218992444277	-10.81853251134783	-9.08023649365942	44.31276308948286	0.7734036165676905	0	0	0	31.53218992444277	-10.81853251134783	-9.08023649365942	44.31276308948286	0.7734036165676905	0	0	0	-4.250778440294757	-1.738441976967533	5.143469576388348	66.71513763781648	1.534303692022579	1.301529558105361	33.463764441828	115.0918678433736	0	0	36.58513496017157	-10.79772520969608	8.424303075440712	34.33541590837122	111.1001119179402	0	0
6.783333333333315	-5.06687506002284	-4.870658837949851	35.56106117442935	0	0.9399999999999999	0	31.53735648347624	-10.81747718227029	-9.080998885040458	44.31551132759927	0.7734515823714507	0	0	0	31.53735648347624	-10.81747718227029	-9.080998885040458	44.31551132759927	0.7734515823714507	0	0	0	-4.258228779437665	-1.73720765688568	5.048887932423052	66.81971286698111	1.664928444233069	1.670388163370276	33.34466008409984	114.2443803780432	0	0	36.61185795275116	-10.80678677096409	8.407101657983553	34.3208793381562	111.0601468425768	0	0
6.799999999999981	-5.046539190954689	-4.867031220106644	35.5828884743551	0	0.9399999999999999	0	31.54003883702439	-10.81693445382943	-9.081392339107369	44.31695091218199	0.7734767078622802	0	0	0	31.54003883702439	-10.81693445382943	-9.081392339107369	44.31695091218199	0.7734767078622802	0	0	0	-4.241472233885538	-1.743218773676625	5.024000729921289	66.88998066096606	1.66807433927485	1.909017630364425	33.25682218914563	114.0120835849613	0	0	36.59786531246458	-10.82726077439358	8.45819107597171	34.26972581386901	110.9964558910653	0	0
6.816666666666648	-5.033821493248755	-4.868892609368981	35.59518137127626	0	0.9399999999999999	0	31.54264384071514	-10.81641064948031	-9.081772931734282	44.31835747662691	0.7735012570429856	0	0	0	31.54264384071514	-10.81641064948031	-9.081772931734282	44.31835747662691	0.7735012570429856	0	0	0	-4.234037376217077	-1.749417033492614	5.000642943866774	66.89610320507198	1.672455626867704	2.123602574363329	33.24355199489329	113.816851758156	0	0	36.60336548962641	-10.84506225728721	8.510876110677216	34.24136943788454	110.9679571294593	0	0
6.833333333333314	-5.046319635142503	-4.88339293179765	35.62558911004228	0	0.9399999999999999	0	31.54654633327081	-10.81561548760001	-9.082348039588549	44.32043551120129	0.7735375255882786	0	0	0	31.54654633327081	-10.81561548760001	-9.082348039588549	44.32043551120129	0.7735375255882786	0	0	0	-4.255778777731312	-1.749215200757885	4.962846882467173	66.84739203885705	1.702416262536473	2.318526178320258	33.62697702521868	113.7036426983702	0	0	36.68542881920058	-10.85227353335165	8.569738457234619	34.20738282634975	110.9181860219954	0	0
6.849999999999981	-5.025811234784282	-4.870929871221532	35.65425602861035	0	0.9399999999999999	0	31.5731893857278	-10.81209281225064	-9.085557941257557	44.33552948784441	0.7738009651779203	0	0	0	31.5731893857278	-10.81209281225064	-9.085557941257557	44.33552948784441	0.7738009651779203	0	0	0	-4.235307489596635	-1.750682927420143	4.960671384861408	66.79827742286493	1.68070572896955	2.319886514676594	33.63648600927349	113.6758620856841	0	0	36.64262299968469	-10.84950134890307	8.604150520299806	34.2130615878834	110.9224550491612	0	0
6.866666666666648	-5.008737862481948	-4.870499413520537	35.67358297799672	0	0.9399999999999999	0	31.58306249703971	-10.8107472990773	-9.08675774387252	44.34113677365409	0.7738988307773994	0	0	0	31.58306249703971	-10.8107472990773	-9.08675774387252	44.34113677365409	0.7738988307773994	0	0	0	-4.221991088571367	-1.760964383916218	4.965439989039441	66.77334939378872	1.670751692879197	2.290487268034487	33.62249339060814	113.673592627131	0	0	36.65381446715109	-10.84399241933831	8.63254047844546	34.18464210087371	110.9171863995286	0	0
6.883333333333314	-5.022542954979485	-4.903901823298228	35.74559988137998	0	0.9399999999999999	0	31.58630077881869	-10.81009116221796	-9.087233333802887	44.34286595834523	0.773929010743635	0	0	0	31.58630077881869	-10.81009116221796	-9.087233333802887	44.34286595834523	0.773929010743635	0	0	0	-4.255488783539666	-1.775594393317824	4.927645328192481	66.68506286363399	1.616489556224771	2.424089066062942	34.68755335696594	113.8551631868042	0	0	36.77471715778722	-10.86046762501961	8.681567418307047	34.16499797965194	110.8923840224982	0	0
6.899999999999981	-4.999745749589093	-4.891944777798358	35.75766924236068	0	0.9399999999999999	0	31.59055406723452	-10.8092352100777	-9.087855323726188	44.34515156243796	0.7739689020604502	0	0	0	31.59055406723452	-10.8092352100777	-9.087855323726188	44.34515156243796	0.7739689020604502	0	0	0	-4.229986942890808	-1.780199022054843	4.932899520853215	66.40817845654496	1.449536482963585	2.60818617206179	34.96434325862985	113.6259550475423	0	0	36.75580454544564	-10.85381916799153	8.69424645498731	34.12975009936292	110.8802561796495	0	0
6.916666666666647	-4.978384236977071	-4.897100475113723	35.77928838805583	0	0.9399999999999999	0	31.59362370794415	-10.80861931304845	-9.088303416245973	44.34680485829108	0.7739977575165967	0	0	0	31.59362370794415	-10.80861931304845	-9.088303416245973	44.34680485829108	0.7739977575165967	0	0	0	-4.215466162849451	-1.797845388740905	4.937870894689825	66.17428003598725	1.273048640313997	2.759463297527334	35.21378697195959	113.401313321852	0	0	36.7553183150295	-10.86002590319747	8.692838726933166	34.12720113738597	110.8766867682474	0	0
